Coordinates
version=1
nRows=20
nColumns=23
inDegrees=yes

Units are S.I. units (second, meters, Newtons, ...)
If the header above contains a line with 'inDegrees', this indicates whether rotational values are in degrees (yes) or radians (no).

endheader
time	pelvis_tilt	pelvis_list	pelvis_rotation	pelvis_tx	pelvis_ty	pelvis_tz	hip_flexion_r	hip_adduction_r	hip_rotation_r	knee_angle_r	knee_angle_r_beta	ankle_angle_r	subtalar_angle_r	mtp_angle_r	hip_flexion_l	hip_adduction_l	hip_rotation_l	knee_angle_l	knee_angle_l_beta	ankle_angle_l	subtalar_angle_l	mtp_angle_l
     22.50000000	    -19.42005767	     -1.01521783	      0.15768251	      2.09571509	      0.94273066	      0.88671548	     52.47723191	      1.12396298	     -2.52886156	     57.59151515	      1.00516156	      4.01696460	    -20.78043303	      0.00000000	     -0.80055309	     -0.14000281	     -6.89600925	     17.74371882	      0.30968631	     -6.08555410	      3.61295669	      0.00000000
     22.50666667	    -19.79468018	     -1.06672826	     -0.25004475	      2.09652961	      0.94506264	      0.88776712	     52.70195343	      1.46279951	     -3.05690141	     53.33693899	      0.93090520	      5.02791961	    -18.92968384	      0.00000000	     -2.12021845	     -0.38079481	     -7.28103521	     16.50185458	      0.28801170	     -8.55156453	      4.23564508	      0.00000000
     22.51333333	    -19.98192390	     -1.14508483	     -0.59474957	      2.09742836	      0.94719222	      0.88886787	     52.59341973	      1.79280385	     -3.73479375	     49.00784362	      0.85534823	      6.13476477	    -16.53689469	      0.00000000	     -3.50431994	     -0.64576520	     -7.48291616	     15.54849736	      0.27137247	    -10.64555913	      4.76224122	      0.00000000
     22.52000000	    -19.96462947	     -1.35713939	     -0.82563697	      2.09850075	      0.94920666	      0.88991186	     52.11140454	      2.12869131	     -4.73874017	     44.62065731	      0.77877738	      7.36126599	    -13.62685142	      0.00000000	     -4.96956880	     -1.05058649	     -7.43884675	     14.89373563	      0.25994472	    -12.31484373	      5.02622463	      0.00000000
     22.52666667	    -19.77283658	     -1.59017467	     -1.00086728	      2.09961035	      0.95088949	      0.89098053	     51.36648794	      2.46341434	     -5.92360123	     40.31234390	      0.70358313	      8.65880378	    -10.24547724	      0.00000000	     -6.43425520	     -1.48141466	     -7.24702861	     14.65939825	      0.25585477	    -13.52839323	      5.17078836	      0.00000000
     22.53333333	    -19.44159410	     -1.89099806	     -1.08717421	      2.10074447	      0.95222419	      0.89205173	     50.40019366	      2.83400072	     -7.30258174	     36.12949366	      0.63057862	     10.00087049	     -6.61528343	      0.00000000	     -7.84632281	     -1.98352445	     -6.80695722	     14.87082299	      0.25954482	    -14.31860896	      4.99425041	      0.00000000
     22.54000000	    -19.05374478	     -2.19932880	     -1.12784931	      2.10177670	      0.95304368	      0.89313644	     49.36137974	      3.24614277	     -8.74555140	     32.19337909	      0.56188046	     11.33547533	     -2.96732549	      0.00000000	     -9.07768175	     -2.50151795	     -6.24349663	     15.60998464	      0.27244563	    -14.66259522	      4.62920689	      0.00000000
     22.54666667	    -18.66912872	     -2.49609872	     -1.14740034	      2.10265125	      0.95329877	      0.89425784	     48.33915535	      3.72762358	    -10.09280454	     28.57098601	      0.49865778	     12.58877003	      0.35265162	      0.00000000	    -10.04221722	     -3.01299932	     -5.61326424	     16.91038843	      0.29514196	    -14.59307173	      4.14126329	      0.00000000
     22.55333333	    -18.34101484	     -2.71966737	     -1.20068174	      2.10327699	      0.95291178	      0.89541803	     47.44336942	      4.25974208	    -11.17373022	     25.37888891	      0.44294517	     13.71078184	      3.08109574	      0.00000000	    -10.68838408	     -3.43365800	     -4.95956533	     18.75596584	      0.32735336	    -14.19260697	      3.50619854	      0.00000000
     22.56000000	    -18.09116284	     -2.89787043	     -1.26376348	      2.10358731	      0.95192183	      0.89648773	     46.69128807	      4.82944882	    -11.93028333	     22.63253689	      0.39501229	     14.63815511	      4.92654744	      0.00000000	    -10.94570154	     -3.80939382	     -4.37638990	     21.20823550	      0.37015354	    -13.47733052	      2.88386013	      0.00000000
     22.56666667	    -18.06921116	     -2.90124708	     -1.42656882	      2.10350859	      0.95012578	      0.89754207	     46.32133626	      5.33742531	    -12.25266390	     20.52325654	      0.35819840	     15.41509843	      5.89467963	      0.00000000	    -10.71603941	     -3.93409140	     -3.71964922	     24.13314598	      0.42120286	    -12.61942255	      1.91513019	      0.00000000
     22.57333333	    -17.74131715	     -3.19404920	     -1.50364830	      2.10353532	      0.94835853	      0.89830382	     45.61094043	      5.96546812	    -12.83219585	     18.85636805	      0.32910571	     16.01287727	      6.36850431	      0.00000000	    -10.55838477	     -4.46306891	     -3.50822689	     27.57110866	      0.48120662	    -11.45517705	      1.81400856	      0.00000000
     22.58000000	    -17.56329631	     -3.36682947	     -1.63225035	      2.10331591	      0.94601065	      0.89891511	     45.19448114	      6.45587263	    -13.28877965	     17.89188448	      0.31227229	     16.45630752	      6.25798524	      0.00000000	    -10.04928877	     -4.79914282	     -3.18465719	     31.32920982	      0.54679786	    -10.32412433	      1.29036255	      0.00000000
     22.58666667	    -17.33753803	     -3.61161121	     -1.86704921	      2.10291044	      0.94325956	      0.89951128	     44.84040217	      7.02245671	    -13.61972501	     17.60458046	      0.30725789	     16.73643191	      5.66730870	      0.00000000	     -9.38765324	     -5.23024250	     -3.13063813	     35.48602638	      0.61934800	     -9.02350311	      1.10527146	      0.00000000
     22.59333333	    -17.06853102	     -3.86896170	     -2.10618686	      2.10242764	      0.94022344	      0.89989986	     44.52607543	      7.49289466	    -14.05008731	     17.93849791	      0.31308585	     16.75926617	      4.81525539	      0.00000000	     -8.61821932	     -5.65357025	     -3.07930429	     39.86445952	      0.69576607	     -7.75074675	      0.78491047	      0.00000000
     22.60000000	    -16.85428755	     -4.06453413	     -2.45660645	      2.10174793	      0.93668604	      0.90025401	     44.37890993	      7.92655182	    -14.21151302	     18.90705965	      0.32999044	     16.59784820	      3.58246333	      0.00000000	     -7.62841478	     -6.02885374	     -3.20935198	     44.49921552	      0.77665783	     -6.37863385	      0.59239850	      0.00000000
     22.60666667	    -16.40708940	     -4.46593059	     -2.70347975	      2.10117018	      0.93319838	      0.90027522	     43.99717620	      8.36701332	    -14.61026146	     20.31254777	      0.35452084	     16.11483690	      2.36215028	      0.00000000	     -6.78300157	     -6.55504292	     -3.13750698	     49.21838835	      0.85902293	     -5.03862678	      0.03464052	      0.00000000
     22.61333333	    -16.30595133	     -4.54888995	     -3.13598605	      2.10013693	      0.92878424	      0.90057770	     44.09749955	      8.66850531	    -14.36944085	     22.22730403	      0.38793964	     15.28699782	      0.69101561	      0.00000000	     -5.38228887	     -6.86200865	     -3.40781860	     54.15983216	      0.94526739	     -3.58190772	     -0.21898559	      0.00000000
     22.62000000	    -16.27069601	     -4.45723321	     -3.72481452	      2.09872578	      0.92397403	      0.90092225	     44.36743366	      8.99708163	    -13.37200356	     24.54715487	      0.42842867	     14.22706601	     -1.77854953	      0.00000000	     -3.81367032	     -6.89160714	     -3.65045321	     59.10577716	      1.03159042	     -2.18039501	     -1.09622228	      0.00000000
     22.62666667	    -16.03449612	     -4.72049354	     -4.07926799	      2.09760747	      0.91930385	      0.90108841	     44.33431126	      9.41292573	    -12.91761107	     26.97225448	      0.47075465	     13.12734003	     -3.78075668	      0.00000000	     -2.35266028	     -7.43631313	     -3.84317284	     64.08445309	      1.11848471	     -0.64947602	     -1.68940267	      0.00000000
